HIERARCHY
ROOT Hips
{
	OFFSET	0.00	0.00	0.00
	CHANNELS 6 Xposition Yposition Zposition Zrotation Xrotation Yrotation
	JOINT LeftUpLeg
	{
		OFFSET	 0.126116	-0.065224	 0.014019
		CHANNELS 3 Zrotation Xrotation Yrotation
		JOINT LeftLeg
		{
			OFFSET	 0.000000	 0.569914	 0.000000
			CHANNELS 3 Zrotation Xrotation Yrotation
			JOINT LeftFoot
			{
				OFFSET	 0.000000	 0.544423	 0.000000
				CHANNELS 3 Zrotation Xrotation Yrotation
				JOINT LeftToeBase
				{
					OFFSET	 0.000000	 0.207117	 0.000000
					CHANNELS 3 Zrotation Xrotation Yrotation
					End Site
					{
						OFFSET	 0.000000	 0.207117	 0.000000
					}
				}
			}
		}
	}
	JOINT RightUpLeg
	{
		OFFSET	-0.124023	-0.065224	 0.008373
		CHANNELS 3 Zrotation Xrotation Yrotation
		JOINT RightLeg
		{
			OFFSET	 0.000000	 0.570047	 0.000000
			CHANNELS 3 Zrotation Xrotation Yrotation
			JOINT RightFoot
			{
				OFFSET	 0.000000	 0.544354	 0.000000
				CHANNELS 3 Zrotation Xrotation Yrotation
				JOINT RightToeBase
				{
					OFFSET	 0.000000	 0.207540	 0.000000
					CHANNELS 3 Zrotation Xrotation Yrotation
					End Site
					{
						OFFSET	 0.000000	 0.207540	 0.000000
					}
				}
			}
		}
	}
	JOINT Spine
	{
		OFFSET	 0.000184	 0.117403	 0.007763
		CHANNELS 3 Zrotation Xrotation Yrotation
		JOINT Spine1
		{
			OFFSET	 0.000000	 0.137269	 0.000000
			CHANNELS 3 Zrotation Xrotation Yrotation
			JOINT Spine2
			{
				OFFSET	 0.000000	 0.156879	 0.000000
				CHANNELS 3 Zrotation Xrotation Yrotation
				JOINT LeftShoulder
				{
					OFFSET	 0.080501	 0.160143	 0.002496
					CHANNELS 3 Zrotation Xrotation Yrotation
					JOINT LeftArm
					{
						OFFSET	 0.000000	 0.164363	 0.000000
						CHANNELS 3 Zrotation Xrotation Yrotation
						JOINT LeftForeArm
						{
							OFFSET	 0.000000	 0.364576	 0.000000
							CHANNELS 3 Zrotation Xrotation Yrotation
							JOINT LeftHand
							{
								OFFSET	 0.000000	 0.360812	 0.000000
								CHANNELS 3 Zrotation Xrotation Yrotation
								JOINT LeftHandIndex1
								{
									OFFSET	 0.000000	 0.086006	 0.000000
									CHANNELS 3 Zrotation Xrotation Yrotation
									JOINT LeftHandIndex2
									{
										OFFSET	 0.000000	 0.047237	 0.000000
										CHANNELS 3 Zrotation Xrotation Yrotation
										JOINT LeftHandIndex3
										{
											OFFSET	-0.004284	 0.038165	 0.000551
											CHANNELS 3 Zrotation Xrotation Yrotation
											End Site
											{
												OFFSET	-0.004284	 0.038165	 0.000551
											}
										}
									}
								}
							}
						}
					}
				}
				JOINT Neck
				{
					OFFSET	 0.000000	 0.176489	 0.000000
					CHANNELS 3 Zrotation Xrotation Yrotation
					JOINT Head
					{
						OFFSET	 0.000000	 0.077941	 0.001747
						CHANNELS 3 Zrotation Xrotation Yrotation
						End Site
						{
							OFFSET	 0.000000	 0.077941	 0.001747
						}
					}
				}
				JOINT RightShoulder
				{
					OFFSET	-0.080363	 0.159706	-0.000306
					CHANNELS 3 Zrotation Xrotation Yrotation
					JOINT RightArm
					{
						OFFSET	 0.000000	 0.164196	 0.000000
						CHANNELS 3 Zrotation Xrotation Yrotation
						JOINT RightForeArm
						{
							OFFSET	 0.000000	 0.365611	 0.000000
							CHANNELS 3 Zrotation Xrotation Yrotation
							JOINT RightHand
							{
								OFFSET	 0.000000	 0.360648	 0.000000
								CHANNELS 3 Zrotation Xrotation Yrotation
								JOINT RightHandIndex1
								{
									OFFSET	 0.000000	 0.069977	 0.000000
									CHANNELS 3 Zrotation Xrotation Yrotation
									JOINT RightHandIndex2
									{
										OFFSET	 0.000000	 0.052305	 0.000000
										CHANNELS 3 Zrotation Xrotation Yrotation
										JOINT RightHandIndex3
										{
											OFFSET	 0.009002	 0.042196	 0.000782
											CHANNELS 3 Zrotation Xrotation Yrotation
											End Site
											{
												OFFSET	 0.009002	 0.042196	 0.000782
											}
										}
									}
								}
							}
						}
					}
				}
			}
		}
	}
}
MOTION
Frames:    5
Frame Time: 0.03333334
 0.436362	 1.273800	 0.406792	 0.634436	-2.400489	-177.247300	 175.371500	 5.875206	 16.533820	 3.439905	-12.727280	 5.983145	 5.762608	 69.597460	-1.668068	 1.292262	 28.425850	-2.713146	-177.917900	 7.832621	-14.964910	-2.351888	-12.051800	 0.770386	 1.676943	 67.864280	-6.027910	-1.288183	 28.361890	 2.710176	-0.961757	 5.321477	-10.937730	 3.248140	-2.790304	-5.496197	-2.076766	 3.138337	 16.325640	-117.513400	-0.796433	 89.951070	-3.202029	 0.437393	-8.504216	 39.949440	-2.985091	 35.631750	-44.961430	 16.414900	-8.028839	-6.580301	 5.266122	 0.000000	 0.000000	 0.000000	 0.000000	 0.000000	 0.000000	 0.000000	 4.832704	 27.234750	 1.681796	-3.699344	-17.073800	 4.382005	 116.373100	-0.463800	-90.561000	-0.656342	 6.593935	 18.854720	-25.499860	 0.596336	-56.948630	-35.730090	-22.031310	-5.210320	 15.208500	 5.323790	 0.000000	 0.000000	 0.000000	 0.000000	 0.000000	 0.000000	 0.000000
 0.436361	 1.273848	 0.407257	 0.648409	-2.505013	-177.236500	 175.376900	 6.013233	 16.557690	 3.443002	-12.738310	 6.009338	 5.762860	 69.583300	-1.720733	 1.292262	 28.425850	-2.713146	-177.922700	 7.937143	-14.962910	-2.340136	-11.993360	 0.735580	 1.635278	 67.808060	-5.939445	-1.288183	 28.361890	 2.710176	-0.950184	 5.269227	-10.887850	 3.236561	-2.630928	-5.477456	-2.038724	 2.869569	 16.245750	-117.623800	-0.830077	 89.936020	-3.345789	 0.497788	-8.231238	 40.226520	-2.990151	 35.320690	-44.505890	 16.057740	-8.300243	-6.580301	 5.266122	 0.000000	 0.000000	 0.000000	 0.000000	 0.000000	 0.000000	 0.000000	 4.909776	 27.476240	 1.617759	-3.700532	-17.255310	 4.382550	 116.547200	-0.511823	-90.544340	-0.515484	 6.678665	 18.675730	-25.777530	 0.618276	-56.700580	-35.817100	-21.836970	-5.398325	 15.208500	 5.323790	 0.000000	 0.000000	 0.000000	 0.000000	 0.000000	 0.000000	 0.000000
 0.436366	 1.273895	 0.407869	 0.661980	-2.635202	-177.223400	 175.379100	 6.188097	 16.586960	 3.448019	-12.756260	 6.042133	 5.761202	 69.566960	-1.785538	 1.292262	 28.425850	-2.713146	-177.928400	 8.076612	-14.961290	-2.329213	-11.939060	 0.691638	 1.586828	 67.746280	-5.830458	-1.288183	 28.361890	 2.710176	-0.940000	 5.233260	-10.817020	 3.216522	-2.507231	-5.448972	-1.995108	 2.650211	 16.136760	-117.761400	-0.871982	 89.917160	-3.512976	 0.599441	-7.870476	 40.597650	-2.998062	 34.939910	-43.965900	 15.632750	-8.571733	-6.580301	 5.266122	 0.000000	 0.000000	 0.000000	 0.000000	 0.000000	 0.000000	 0.000000	 5.006553	 27.777290	 1.537191	-3.703630	-17.465290	 4.380232	 116.764200	-0.571603	-90.523380	-0.363285	 6.792537	 18.455850	-26.137760	 0.645791	-56.399910	-35.850020	-21.539290	-5.661302	 15.208500	 5.323790	 0.000000	 0.000000	 0.000000	 0.000000	 0.000000	 0.000000	 0.000000
 0.436374	 1.273929	 0.408623	 0.675110	-2.786168	-177.208200	 175.376300	 6.397310	 16.621210	 3.457098	-12.788680	 6.080855	 5.758176	 69.552990	-1.861552	 1.292262	 28.425850	-2.713146	-177.933200	 8.249108	-14.959510	-2.320764	-11.897050	 0.640079	 1.535933	 67.683900	-5.706768	-1.288183	 28.361890	 2.710176	-0.931138	 5.215503	-10.728380	 3.187637	-2.416191	-5.412323	-1.946748	 2.484279	 16.002450	-117.921100	-0.920562	 89.895130	-3.701017	 0.752341	-7.424462	 41.055520	-3.009127	 34.506670	-43.369870	 15.146140	-8.845691	-6.580301	 5.266122	 0.000000	 0.000000	 0.000000	 0.000000	 0.000000	 0.000000	 0.000000	 5.119837	 28.126610	 1.442659	-3.708540	-17.696070	 4.375259	 117.016200	-0.640920	-90.498760	-0.207616	 6.947345	 18.204430	-26.567360	 0.677786	-56.062540	-35.820370	-21.160210	-5.995144	 15.208500	 5.323790	 0.000000	 0.000000	 0.000000	 0.000000	 0.000000	 0.000000	 0.000000
 0.436384	 1.273945	 0.409570	 0.688772	-2.964137	-177.190200	 175.366600	 6.654211	 16.662080	 3.472979	-12.845440	 6.127643	 5.752865	 69.544340	-1.952481	 1.292262	 28.425850	-2.713146	-177.935200	 8.466274	-14.957970	-2.316131	-11.873930	 0.578216	 1.481382	 67.621880	-5.562531	-1.288183	 28.361890	 2.710176	-0.923005	 5.215432	-10.617360	 3.147366	-2.344505	-5.365644	-1.890640	 2.361242	 15.836140	-118.110300	-0.978001	 89.868870	-3.916612	 0.977640	-6.859890	 41.621770	-3.023895	 34.004980	-42.698460	 14.563270	-9.147466	-6.580301	 5.266122	 0.000000	 0.000000	 0.000000	 0.000000	 0.000000	 0.000000	 0.000000	 5.255347	 28.540130	 1.329270	-3.715527	-17.958110	 4.367432	 117.314600	-0.722844	-90.469220	-0.046447	 7.166557	 17.911130	-27.079560	 0.715578	-55.678370	-35.719370	-20.696110	-6.422368	 15.208500	 5.323790	 0.000000	 0.000000	 0.000000	 0.000000	 0.000000	 0.000000	 0.000000
